<svg id="Layer_x0020_1" xmlns="http://www.w3.org/2000/svg" width="900" height="900" viewBox="0 0 900 900">
<circle id="Ellipse_1" data-name="Ellipse 1" cx="450" cy="450" r="450" fill="#399df5"></circle>
<path id="Path_1" data-name="Path 1" d="M365.743,667.4c-3.216,12-24.056,15.168-44.853,18.324-19.587,2.974-39.151,5.945-48.25,16.674l-.008-.007a4.913,4.913,0,0,0,3.748,8.091H529.9a4.915,4.915,0,0,0,3.472-8.392c-9.445-10.76-28.928-13.583-48.758-16.452-21.092-3.051-42.63-6.168-48.309-18.628l-2.732.669a8.9,8.9,0,0,1-3.511.425H370.982a8.746,8.746,0,0,1-2.65-.242q-1.292-.225-2.588-.462Z" fill="#250e1e"></path>
<path id="Path_2" data-name="Path 2" d="M433.662,525.615l-81.86.033c-5.572,22.289-49.631,38.958-54.2,40.632C247.69,575.335,241.5,552.594,240.965,550a5.148,5.148,0,0,0-.136-.707h-.006c-5.688-21.245,22.784-37.357,31.312-12.1,4.263,12.637,8.378,24.81,31.617,15.685,4.613-1.6,8.225-10.878,8.595-15.065a25.705,25.705,0,0,0-2.674-13.313,43.021,43.021,0,0,0-8.511-11.707c-9.416-9.417-23.888-16.775-38.435-18.057-14.659-1.291-26.848,2.786-35.95,10.219a47.249,47.249,0,0,0-12.371,15.592,54.688,54.688,0,0,0-5.44,19.613c-1.356,15.4,3.3,32.458,15.15,47.13a4.786,4.786,0,0,0,.407.518l0,0c49.989,55.541,140.2,69.6,145.491,70.381a4.88,4.88,0,0,0,.963.094h59.075a4.98,4.98,0,0,0,1.175-.142l0-.012c51.258-12.625,75.311-31.473,97.337-48.732,30.415-23.833,56.807-44.512,151.853-39.53a4.913,4.913,0,0,0,1.863-9.624l0,.006c-23.741-6.344-42.62-28.478-45.085-31.467a4.9,4.9,0,0,0-3.236-2.124h-.014c-53.863-9.555-78.7,6.412-83.225,9.789C442.4,577.607,433.692,525.766,433.662,525.615Z" fill="#250e1e"></path>
<path id="Path_3" data-name="Path 3" d="M351.762,515.823a41.314,41.314,0,0,1,41.08-38.14h0a41.322,41.322,0,0,1,41.08,38.106l-82.162.034Z" fill="#250e1e"></path>
<path id="Path_4" data-name="Path 4" d="M374.906,481.026a4.914,4.914,0,0,0,9.458,1.871,36.552,36.552,0,0,1,16.935-.061,4.914,4.914,0,0,0,9.483-1.809v-12.39A17.987,17.987,0,0,0,392.845,450.7h0a17.977,17.977,0,0,0-17.936,17.936v12.39Z" fill="#250e1e"></path>
<path id="Path_5" data-name="Path 5" d="M579.757,373.671c3.247,2.4,43.166,32.673,17.376,52.227-2.32,7.561-10.994,44.111,34.128,54.529,3.735.513,39.723,5.914,49.8,25.382.372-7.9-3.835-17-20.1-24.26l-.006.014a4.887,4.887,0,0,1-1.338-.882c-3.646-2.993-40.185-34.447-9.035-68.713l-.007-.006a5,5,0,0,1,.7-.633c2.526-2.216,25.315-23.557,10.026-59.441l-22.928-17.895-.012.014a4.912,4.912,0,0,1,1.851-8.643l26.067-7.766c3.3-3.36,15.061-17.314-8.858-24.765l0,.008A4.915,4.915,0,0,1,654,287.547c.347-4.274,5.624-79.442-59.3-55.165l.007.018a4.915,4.915,0,0,1-6.1-2.38c-1.923-3.09-19.607-29.93-47.137-19.072-2.35,1.291-27.3,15.973-8.131,48.17l.022-.012a4.915,4.915,0,0,1-7.86,5.82c-2.22-2.049-19.5-17.113-33.472-3.587h0l-.008.009.011.011-.1.1c-1.766,2.122-11.4,15.781,16.011,33.978l-2.707,4.088,2.719-4.094a4.914,4.914,0,0,1-4.72,8.581c-3.94-1.276-35.114-10.341-30.172,24.266h.008a4.927,4.927,0,0,1,.014,1.284c-.148,3.513-.566,35.092,32.724,29l.883,4.818-.886-4.833a4.916,4.916,0,0,1,5.609,6.189c-.745,3.9-6.256,37.267,22.854,39.22,3.586-.149,37.955-2.216,37.507-26.366h-.019a4.912,4.912,0,0,1,8.007-3.911Z" fill="#eef1f2"></path>
</svg>